PathFileType	4	(X/Y/Z)	 s10c0302.trc
DataRate	CameraRate	NumFrames	NumMarkers	Units	OrigDataRate	OrigDataStartFrame	OrigNumFrames
200	200	4	50	mm	200	251	2000
Frame#	Time	racr			lacr			c7			jug			rlel			rdr			llel			ldr			s2			lic			ric			lasi			rasi			rpsi			lpsi			rgt			lgt			rth1			rth2			rth3			rth4			rlfc			rmfc			rsh1			rsh2			rsh3			rsh4			rlmal			rmmal			rcal			rtoe			rmt5			lth1			lth2			lth4			lth3			llfc			lmfc			llmal			lmmal			lcal			lmt5			lsh1			lsh2			lsh3			lsh4			ltoe			SBIKE			LBIKE			RBIKE			
		X1	Y1	Z1	X2	Y2	Z2	X3	Y3	Z3	X4	Y4	Z4	X5	Y5	Z5	X6	Y6	Z6	X7	Y7	Z7	X8	Y8	Z8	X9	Y9	Z9	X10	Y10	Z10	X11	Y11	Z11	X12	Y12	Z12	X13	Y13	Z13	X14	Y14	Z14	X15	Y15	Z15	X16	Y16	Z16	X17	Y17	Z17	X18	Y18	Z18	X19	Y19	Z19	X20	Y20	Z20	X21	Y21	Z21	X22	Y22	Z22	X23	Y23	Z23	X24	Y24	Z24	X25	Y25	Z25	X26	Y26	Z26	X27	Y27	Z27	X28	Y28	Z28	X29	Y29	Z29	X30	Y30	Z30	X31	Y31	Z31	X32	Y32	Z32	X33	Y33	Z33	X34	Y34	Z34	X35	Y35	Z35	X36	Y36	Z36	X37	Y37	Z37	X38	Y38	Z38	X39	Y39	Z39	X40	Y40	Z40	X41	Y41	Z41	X42	Y42	Z42	X43	Y43	Z43	X44	Y44	Z44	X45	Y45	Z45	X46	Y46	Z46	X47	Y47	Z47	X48	Y48	Z48	X49	Y49	Z49	X50	Y50	Z50	
251	1.2550	399.677810	1288.892593	-19.735825	433.334333	1303.308448	-352.636643	392.968616	1343.514663	-187.303316	410.475072	1201.565651	-184.144983	489.272014	1044.284886	44.496658	644.988407	875.457922	-8.146491	507.747091	1041.960788	-432.187965	664.309697	883.349844	-370.649179	-103.765849	1104.949036	-215.993599	68.540011	1096.522773	-358.392981	73.494720	1095.604630	-80.601904	83.976713	1006.869513	-334.561984	65.893079	1021.284560	-76.258950	-56.911498	1155.362482	-160.340265	-43.442814	1154.012858	-268.790075	-58.721172	1018.930339	-16.668374	-51.871852	984.159038	-410.094837	30.174142	928.052184	19.079724	119.493395	925.807887	18.088927	191.875179	880.140277	20.121131	129.059223	961.484936	8.124183	304.767556	842.402586	11.295441	314.348484	836.964840	-105.882674	252.169585	735.498264	20.899516	257.089978	648.696784	0.038660	218.137700	573.833138	-18.323632	289.464820	647.628982	-19.956589	199.884524	474.652770	-47.367147	232.251676	499.498331	-120.451781	152.644621	454.100849	-98.538918	393.323898	433.633005	-79.985437	307.476645	406.709235	-23.061001	16.400020	871.870915	-433.851066	91.717980	828.900185	-427.210360	116.440206	854.172851	-416.099476	136.663447	751.976254	-425.755782	209.245007	664.995629	-410.161075	214.634884	658.079421	-290.961784	-19.734119	368.045328	-380.797841	-3.337395	364.708460	-301.577388	-79.564789	367.862263	-335.499472	39.854418	236.810620	-397.470570	120.052372	577.910046	-431.330868	98.643890	494.480435	-412.824186	34.590850	433.109339	-402.764611	125.134752	484.571043	-387.319157	123.258496	217.007940	-337.859791	-204.802634	832.783380	-224.444071	-78.224861	81.791420	-423.566928	-102.632856	80.494478	-24.389872	
252	1.2600	399.612726	1288.894412	-19.703528	433.347042	1303.309484	-352.568239	392.946778	1343.513902	-187.282915	410.454806	1201.585830	-184.086618	489.256731	1044.289621	44.509661	644.974150	875.458603	-8.123877	507.765932	1041.973954	-432.167959	664.286780	883.349751	-370.656416	-103.779180	1104.953103	-216.000319	68.536558	1096.561092	-358.387817	73.414487	1095.567547	-80.602205	83.979746	1006.912933	-334.532974	65.863080	1021.273010	-76.250126	-56.928006	1155.360667	-160.338982	-43.493120	1154.009086	-268.763385	-58.794669	1018.907462	-16.691394	-51.882081	984.182932	-410.086920	30.121702	927.976811	19.076332	119.409374	925.718445	18.101916	191.816907	880.066109	20.139779	129.025547	961.419331	8.171586	304.702493	842.300224	11.318898	314.337428	836.901322	-105.844619	252.111915	735.451856	20.923002	257.034873	648.616811	0.042119	218.064284	573.788156	-18.312247	289.398955	647.525219	-19.951687	199.831268	474.569229	-47.404303	232.234340	499.484230	-120.450179	152.617906	454.039736	-98.547860	393.304031	433.621416	-80.008171	307.431260	406.652818	-23.089210	16.401778	871.896609	-433.868039	91.725318	828.937171	-427.240619	116.465469	854.198778	-416.108598	136.675029	751.991694	-425.774686	209.246251	665.027198	-410.197799	214.608545	658.070958	-291.020844	-19.713560	368.088029	-380.791370	-3.268101	364.736621	-301.610801	-79.556104	367.899620	-335.513527	39.848853	236.853445	-397.449415	120.053818	577.935149	-431.331455	98.649944	494.526987	-412.882634	34.609051	433.146916	-402.777235	125.150456	484.624302	-387.363489	123.243007	217.026297	-337.877803	-204.802784	832.780813	-224.430754	-78.256492	81.768346	-423.579189	-102.660810	80.498879	-24.395632	
253	1.2650	399.547316	1288.910082	-19.652591	433.361292	1303.314374	-352.484419	392.940190	1343.519299	-187.245220	410.441681	1201.592468	-184.027095	489.265578	1044.306847	44.538512	645.006120	875.451366	-8.108005	507.780081	1041.975559	-432.137119	664.284393	883.339150	-370.644637	-103.774954	1104.959881	-215.971646	68.548998	1096.572399	-358.355989	73.348735	1095.550687	-80.596896	83.988678	1006.915508	-334.527227	65.830179	1021.233408	-76.259962	-56.913604	1155.375723	-160.326376	-43.498572	1154.024491	-268.761828	-58.820066	1018.887137	-16.714827	-51.878971	984.198732	-410.088671	30.067849	927.882266	19.040290	119.337370	925.660582	18.130944	191.763599	879.984545	20.171322	129.009004	961.322826	8.216016	304.636088	842.217416	11.374344	314.349632	836.886629	-105.830297	252.069871	735.374402	20.963772	256.994924	648.495588	0.082763	218.002621	573.702577	-18.304785	289.348617	647.472368	-19.939746	199.795657	474.494149	-47.435092	232.175068	499.426507	-120.436967	152.612043	453.948691	-98.563664	393.283367	433.621607	-80.034270	307.413506	406.615396	-23.105751	16.431411	871.938254	-433.884978	91.728738	828.981938	-427.254951	116.473292	854.232640	-416.099887	136.704015	752.027399	-425.771719	209.281200	665.049510	-410.222253	214.597686	658.083836	-291.079088	-19.688313	368.120571	-380.794821	-3.226190	364.757074	-301.632574	-79.553468	367.954724	-335.517232	39.838598	236.893671	-397.437997	120.066030	577.958199	-431.355258	98.672705	494.548949	-412.869819	34.629105	433.162825	-402.782931	125.168875	484.689103	-387.357519	123.228017	217.018508	-337.863252	-204.809130	832.772438	-224.447629	-78.261824	81.781627	-423.603509	-102.677132	80.488179	-24.404737	
254	1.2700	399.520955	1288.929826	-19.591595	433.367265	1303.333182	-352.418980	392.930493	1343.504981	-187.198738	410.432353	1201.593671	-183.950260	489.283144	1044.304004	44.589571	644.982719	875.464534	-8.143676	507.799044	1041.986858	-432.106342	664.285588	883.355672	-370.667708	-103.807591	1104.946680	-215.952921	68.563373	1096.582163	-358.342426	73.327373	1095.555345	-80.572811	83.967645	1006.935544	-334.508305	65.810021	1021.220433	-76.263995	-56.955375	1155.359450	-160.297176	-43.506269	1154.024118	-268.742966	-58.833660	1018.842067	-16.712609	-51.880175	984.214368	-410.061927	30.037675	927.832089	19.052458	119.330794	925.567151	18.161869	191.735872	879.939621	20.199915	128.969002	961.285861	8.254907	304.590895	842.162867	11.406680	314.337463	836.840942	-105.802675	251.999866	735.309733	20.989888	256.956712	648.458355	0.134590	217.924964	573.661337	-18.297453	289.291207	647.423338	-19.893005	199.781524	474.436357	-47.434640	229.401089	498.243817	-121.086750	152.592523	453.854687	-98.530802	393.276846	433.602447	-80.030374	307.397249	406.588318	-23.101754	16.434422	871.977129	-433.869569	91.760266	829.087957	-427.302790	116.471524	854.271498	-416.110941	136.713209	752.082411	-425.811299	209.296693	665.089866	-410.258069	214.617110	658.108253	-291.107426	-19.672753	368.154321	-380.817175	-3.208120	364.797721	-301.630440	-79.535870	368.003325	-335.525966	39.836586	236.905612	-397.434275	120.074018	578.021566	-431.376918	98.686356	494.590046	-412.910001	34.645238	433.208882	-402.804279	125.187371	484.662984	-387.394876	123.227584	217.039549	-337.856295	-204.814229	832.766791	-224.435455	-78.247117	81.785482	-423.611135	-102.668331	80.468991	-24.425538	
